<svg width="32" height="11" viewBox="0 0 32 11" fill="none" xmlns="http://www.w3.org/2000/svg">
<g clip-path="url(#clip0_0_64)">
<path fill-rule="evenodd" clip-rule="evenodd" d="M18.7726 0.91389C17.8259 0.453487 16.9649 0.303589 15.9433 0.303589C15.0174 0.303589 14.0493 0.500007 13.1706 0.879553C12.2561 0.561296 10.0652 0.75033 9.58632 0.761037C9.03803 0.773591 6.76962 0.636614 6.23392 0.636614C5.69818 0.636614 4.59056 0.653967 3.75505 0.711194C2.48312 0.798697 1.04507 0.674643 0.87154 0.631445C0.787361 0.61077 0.72495 0.661721 0.72495 0.661721C0.687675 0.711194 0.301483 1.14723 0.301483 1.14723L0.339142 1.27239L1.24849 1.73316L1.12408 2.33165L2.00944 2.73076C2.00944 2.73076 2.00944 3.22845 2.05853 3.29085C2.10839 3.35398 2.99375 3.57772 2.99375 3.57772C2.99375 3.57772 3.08197 4.1596 3.14326 4.21313C3.24702 4.30543 4.17817 4.40069 4.17817 4.40069C4.17817 4.40069 4.46429 4.92386 4.58873 4.9737C4.71352 5.02354 5.71073 5.17344 5.8972 5.12323C5.8972 5.12323 5.9799 5.55889 6.15638 5.63754C6.34503 5.72098 7.43015 5.68479 7.43015 5.68479C7.43015 5.68479 7.5649 6.11418 7.7809 6.18138C7.98284 6.24377 8.9258 5.99567 8.9258 5.99567C8.9258 5.99567 9.06353 6.31392 9.20049 6.36967C9.40946 6.45496 10.1711 6.1847 10.1711 6.1847C10.5629 7.79851 11.8676 8.94047 13.4043 9.53748L13.6192 9.96945L14.1242 9.7782L14.3882 10.1832L14.8494 9.93253L15.1636 10.3136L15.5778 10.0138L15.943 10.3527L16.3066 10.0038L16.722 10.3076L17.0347 9.92736L17.4966 10.1788L17.7613 9.77709L18.2686 9.97167L18.4776 9.53932C19.902 8.98662 21.2208 7.8358 21.6494 6.37669C21.7827 6.43613 22.0356 6.52253 22.2446 6.53139C22.2446 6.53139 22.4828 6.44536 22.5795 6.14409C22.5795 6.14409 23.4061 6.40216 23.5571 6.35601C23.5571 6.35601 23.696 6.34863 23.8241 5.92589C23.9086 5.96465 23.9788 5.94398 24.1047 5.9713C24.7482 6.11123 25.0288 6.03554 25.0288 6.03554C25.0288 6.03554 25.1728 6.01117 25.2869 5.46918C25.3441 5.47767 25.3851 5.48468 25.4283 5.4821C25.4283 5.4821 26.3838 5.50942 26.5492 5.42672C26.5492 5.42672 26.7002 5.38869 26.7545 4.84558C27.1484 4.90466 27.5029 4.9305 27.7898 4.89764C27.7898 4.89764 28.111 4.78725 28.2346 4.15553C28.4514 4.14187 29.0905 4.09942 29.1698 4.00527C29.1698 4.00527 29.3271 3.9329 29.3271 3.36543C29.5771 3.34918 29.9836 3.29676 30.1301 3.14095C30.1301 3.14095 30.2852 2.96152 30.218 2.52917C30.8084 2.40549 31.0133 2.21313 31.0133 2.21313C31.0092 2.00416 30.8254 1.61982 30.8254 1.61982C30.8254 1.61982 31.4859 1.36506 31.6465 1.23584L31.6985 1.14021C31.6985 1.14021 31.2987 0.660982 31.2367 0.64806C31.0945 0.618523 29.8167 0.803496 28.9908 0.803496C28.1641 0.803496 26.6744 0.677966 26.0611 0.677966C25.4475 0.677966 23.5317 0.816049 22.6304 0.816049C21.7288 0.816049 21.3792 0.677966 20.7157 0.677966C20.3033 0.677966 19.3563 0.704179 18.7726 0.91389Z" fill="black"/>
<path d="M29.6104 1.80474C29.3963 1.80511 29.1829 1.80585 28.9694 1.80585C28.6047 1.82283 28.2133 1.8125 27.8367 1.8184C27.3409 1.82616 26.1993 1.83539 26.1413 1.83982C25.9046 1.83982 25.6676 1.83982 25.4313 1.83982C25.0285 1.83982 24.673 1.83834 24.2705 1.83834C24.2022 1.84129 23.7942 1.85237 23.6654 1.85163C23.6078 1.85015 23.5037 1.84314 23.4465 1.85163C23.3512 1.8664 23.1958 2.06688 23.383 2.06688C23.3911 2.06503 23.3999 2.06356 23.4088 2.06245C23.4276 2.05986 23.4465 2.05691 23.4657 2.05359C23.5181 2.03734 23.5864 2.05691 23.6399 2.06097C23.7396 2.06799 23.8404 2.07574 23.9405 2.08276C24.2037 2.10085 24.4666 2.11857 24.7291 2.13703C24.9178 2.15217 25.1072 2.16804 25.2958 2.18281C26.6778 2.26994 28.0431 2.39363 29.4753 2.39363C29.8064 2.39363 30.1022 2.24853 30.2063 2.2153C30.2506 2.2009 30.3436 2.19056 30.3787 2.15918C30.4525 2.09457 30.3676 1.86012 30.2967 1.81729C30.2484 1.78776 29.6639 1.80179 29.6104 1.80474Z" fill="white"/>
<path d="M1.81064 1.90979C1.73828 1.93711 1.70653 1.97329 1.69693 2.05341C1.68916 2.11175 1.73346 2.24614 1.87524 2.31961C1.9764 2.36576 2.36076 2.5452 2.45971 2.56624C2.55127 2.58581 8.3375 2.24762 8.34671 2.24614C8.42499 2.21033 8.6373 2.15162 8.61884 2.02794C8.61367 1.99249 8.5579 1.95742 8.52689 1.94486C8.46155 1.92013 7.7486 1.98511 7.69543 1.98548C7.20403 1.98548 1.94356 1.90979 1.81064 1.90979Z" fill="white"/>
<path d="M22.0909 1.99705C22.027 1.99557 21.9624 2.03397 21.9373 2.10301C21.9162 2.15987 21.9092 2.2374 21.9583 2.27691C22.0093 2.31752 22.0883 2.32897 22.1522 2.34558C22.2552 2.37217 22.3586 2.39875 22.4608 2.42533C22.5797 2.4545 22.6786 2.47111 22.8164 2.48477C22.9227 2.49474 23.015 2.47111 23.0427 2.38583C23.0733 2.28688 23.0623 2.22079 22.9851 2.17685C22.9489 2.15655 22.8001 2.11446 22.583 2.07458C22.3711 2.03582 22.154 2.00111 22.0909 1.99705Z" fill="white"/>
<path d="M9.68303 1.99243C9.48106 2.05482 9.27247 2.08547 9.06202 2.1246C8.97968 2.139 8.87113 2.14343 8.80432 2.18995C8.77366 2.21137 8.75667 2.24386 8.7482 2.27819C8.74081 2.31253 8.7456 2.35314 8.76627 2.37751C8.79693 2.41406 8.99149 2.49861 9.11776 2.47683C9.31787 2.42846 9.49214 2.36459 9.67822 2.30441C9.74284 2.28558 9.82702 2.27487 9.87354 2.22355C9.92449 2.16706 9.89088 2.10467 9.85065 2.0563C9.80892 2.00756 9.74394 1.97803 9.68303 1.99243Z" fill="white"/>
<path d="M23.3567 2.31366C23.3327 2.32437 23.3087 2.33138 23.2895 2.35132C23.2241 2.41778 23.2082 2.52743 23.3349 2.52743C23.3862 2.51192 23.525 2.53297 23.5745 2.54072C23.6664 2.55438 23.758 2.56878 23.8492 2.58318C24.2195 2.64152 24.5902 2.69985 24.9605 2.75819C25.4076 2.83129 25.8566 2.90587 26.3111 2.95608C26.6301 2.99153 26.9476 3.04764 27.2699 3.07829C27.7669 3.12555 28.2572 3.19533 28.7825 3.19533C28.8143 3.19422 28.8464 3.19237 28.8782 3.19127C28.8966 3.18905 28.9158 3.18794 28.9346 3.18721C28.9476 3.18499 28.9616 3.18388 28.9745 3.18241C28.9886 3.18093 29.003 3.17945 29.0177 3.17761C29.0332 3.1765 29.0495 3.17502 29.0653 3.17391C29.079 3.1717 29.0916 3.17096 29.1049 3.16948C29.1152 3.16727 29.1252 3.16616 29.1348 3.16468C29.144 3.16358 29.1525 3.16173 29.1617 3.16062C29.1706 3.15915 29.1787 3.15767 29.1872 3.15619C29.196 3.15472 29.2053 3.15361 29.2138 3.15176C29.2614 3.13958 29.309 3.12702 29.3559 3.11447C29.5224 3.06352 29.6073 2.99374 29.6653 2.8287C29.6779 2.79141 29.6937 2.73899 29.6646 2.70539C29.6384 2.67585 29.5977 2.67068 29.5579 2.66884C29.3489 2.66884 29.1396 2.6681 28.9306 2.6681C28.6456 2.65776 28.3616 2.64705 28.0759 2.63672C27.0199 2.58724 25.9714 2.50269 24.9254 2.4355C24.571 2.40818 24.2166 2.38086 23.8617 2.35316C23.7152 2.34172 23.5099 2.31366 23.3567 2.31366Z" fill="white"/>
<path d="M9.93312 2.45917C9.73931 2.49683 9.56687 2.5799 9.38448 2.64119C9.30916 2.66592 9.21243 2.68365 9.1567 2.74494C9.12273 2.78223 9.11387 2.82985 9.12604 2.88191C9.1338 2.91662 9.14931 2.96868 9.17368 2.996C9.22241 3.05138 9.35125 3.10307 9.43803 3.10307C9.48638 3.10159 9.56096 3.08645 9.59236 3.0739C9.73487 2.9971 9.87665 2.92068 10.0192 2.84388C10.0679 2.81767 10.1307 2.80992 10.1705 2.76856C10.3064 2.62863 10.0487 2.4396 9.93312 2.45917Z" fill="white"/>
<path d="M21.8244 2.52982C21.7432 2.5564 21.5586 2.65683 21.638 2.74654C21.6694 2.78273 21.7702 2.81669 21.8134 2.83146C21.8669 2.85472 21.8632 2.86137 21.9164 2.88463C21.9765 2.91232 22.0356 2.94038 22.0954 2.9677C22.2069 3.02197 22.2664 3.08105 22.4067 3.08105C22.5721 3.07735 22.6463 3.10283 22.7283 2.94629C22.7504 2.90567 22.7356 2.86026 22.712 2.82962C22.6733 2.77903 22.4539 2.69929 22.3587 2.66679C22.1719 2.60329 21.8769 2.51579 21.8244 2.52982Z" fill="white"/>
<path d="M8.49558 2.48523C8.36488 2.49852 7.40976 2.59045 7.06196 2.61261C6.87588 2.62774 3.62759 2.8297 3.34439 2.83376C3.29196 2.83782 2.60524 2.83044 2.534 2.89099C2.49707 2.92237 2.53804 3.10808 2.57349 3.14205C2.63959 3.20592 2.76031 3.22475 2.84708 3.24875C3.09924 3.31964 3.32593 3.40013 3.61873 3.40013C3.63793 3.39865 8.71675 2.75106 8.80905 2.75106C8.82234 2.73814 8.83525 2.72891 8.83304 2.70823C8.82899 2.66208 8.65139 2.52104 8.60708 2.50074C8.57424 2.48597 8.53619 2.48523 8.49558 2.48523Z" fill="white"/>
<path d="M23.0562 2.69397C23.0063 2.7128 22.9469 2.73864 22.9595 2.80769C22.9679 2.85716 22.9894 2.9358 23.0304 2.96718C23.1005 3.02109 23.2578 3.04213 23.3475 3.06539C23.5967 3.13 23.847 3.19425 24.0966 3.25812C24.4654 3.35301 24.8373 3.43128 25.2124 3.51989C25.6661 3.6277 26.1354 3.72221 26.6028 3.7979C26.8601 3.83888 27.1182 3.8854 27.3833 3.91974C27.5199 3.93709 27.6528 3.9622 27.7968 3.9622C27.8105 3.96109 27.823 3.95961 27.8367 3.95777C27.8607 3.95666 27.8865 3.95518 27.9109 3.95371C27.9283 3.95223 27.9452 3.95112 27.9633 3.94928C27.9759 3.9478 27.9888 3.94669 28.0021 3.94485C28.0213 3.94374 28.0405 3.94226 28.0586 3.94078C28.0782 3.93894 28.0966 3.93746 28.1154 3.93672C28.1346 3.93451 28.1531 3.9334 28.1723 3.93192C28.1871 3.93045 28.2011 3.92897 28.2155 3.92749C28.2288 3.92602 28.2417 3.92454 28.255 3.92343C28.2679 3.92159 28.2812 3.92048 28.2941 3.919C28.3071 3.91716 28.32 3.91605 28.3337 3.9142C28.3447 3.91309 28.3565 3.91162 28.3676 3.91014C28.3768 3.90903 28.3853 3.90719 28.3946 3.90571C28.4031 3.90423 28.4119 3.90313 28.4208 3.90128C28.4296 3.8998 28.4381 3.89869 28.4462 3.89685C28.4555 3.89574 28.464 3.8939 28.4732 3.89242C28.5245 3.86879 28.5795 3.8699 28.6275 3.83778C28.6925 3.79384 28.8491 3.57711 28.766 3.50844C28.7003 3.45343 28.3436 3.46451 28.2328 3.45565C27.8954 3.42906 27.5598 3.38808 27.2268 3.35596C26.7483 3.31092 26.2727 3.22637 25.8016 3.16582C25.2423 3.09382 24.6914 3.00263 24.1413 2.91069C23.8858 2.86676 23.6296 2.82356 23.3748 2.77926C23.2637 2.75267 23.181 2.69397 23.0562 2.69397Z" fill="white"/>
<path d="M8.42605 3.02232C8.1425 3.07217 7.85968 3.12127 7.57613 3.17074C7.12791 3.25271 5.36496 3.51632 4.93039 3.56469C4.64905 3.59607 4.36845 3.62856 4.08047 3.65145C3.55363 3.62598 3.46059 3.71274 3.5274 3.85341C3.5562 3.91396 3.58464 3.99408 3.64224 4.03764C3.71274 4.09044 4.29943 4.20933 4.52647 4.20933C4.79969 4.21856 6.01107 4.02583 6.21154 3.97636C6.52353 3.89993 8.89937 3.26046 8.96031 3.22022C9.00718 3.18884 8.96878 3.04595 8.91045 2.97322C8.8595 2.91008 8.55675 2.99869 8.42605 3.02232Z" fill="white"/>
<path d="M10.343 2.95994C10.2581 2.964 9.67882 3.32435 9.63746 3.37862C9.60905 3.41554 9.60979 3.46021 9.62382 3.50489C9.63489 3.54033 9.64485 3.57725 9.67217 3.60457C9.73567 3.66845 9.87745 3.67029 9.97309 3.67029C9.99893 3.66032 10.0251 3.64999 10.0514 3.63965C10.1023 3.61122 10.1433 3.56802 10.1909 3.5311C10.2887 3.45172 10.3633 3.3956 10.4612 3.31659C10.511 3.28152 10.6255 3.25272 10.6576 3.19771C10.7399 3.05519 10.4409 2.95772 10.343 2.95994Z" fill="white"/>
<path d="M21.448 2.95996C21.3516 2.96513 21.1747 3.02457 21.1585 3.15195C21.1541 3.18444 21.1596 3.21767 21.1836 3.23724C21.2268 3.27342 21.5683 3.44547 21.6772 3.51525C21.7599 3.56768 21.8238 3.63081 21.9335 3.63081C22.0811 3.62601 22.1336 3.58983 22.1697 3.56805C22.2336 3.52854 22.3104 3.43107 22.255 3.35501C22.2063 3.28708 22.1026 3.25791 22.0317 3.22542C21.9534 3.1885 21.8755 3.15158 21.7968 3.11466C21.7444 3.08845 21.5332 2.95996 21.448 2.95996Z" fill="white"/>
<path d="M22.8641 3.21277C22.8128 3.23529 22.7618 3.25818 22.7105 3.2807C22.6404 3.30876 22.4643 3.34642 22.5064 3.45312C22.5407 3.54063 23.371 3.78615 23.6254 3.87697C24.2878 4.10625 24.8545 4.30193 25.5527 4.45589C26.06 4.56776 26.6001 4.69403 27.1617 4.69403C27.1846 4.69292 27.2082 4.69182 27.2304 4.68997C27.247 4.68849 27.2621 4.68702 27.2787 4.68591C27.288 4.68406 27.2961 4.68295 27.3049 4.68148C27.3433 4.66191 27.381 4.65342 27.4172 4.62868C27.4733 4.58844 27.5047 4.52863 27.5483 4.48026C27.5885 4.43595 27.6487 4.40199 27.6727 4.34882C27.683 4.32408 27.6841 4.29196 27.6679 4.26981C27.649 4.24581 27.6206 4.2388 27.5926 4.23104C27.4637 4.21369 27.3345 4.19634 27.2049 4.17862C26.9535 4.138 26.7024 4.09739 26.4506 4.05678C26.1131 4.00029 25.7742 3.92682 25.4438 3.85482C24.9147 3.74 24.3952 3.6237 23.8798 3.49115C23.6402 3.42802 23.4002 3.36562 23.1606 3.30286C23.11 3.28698 23.059 3.27184 23.0081 3.25597C22.9597 3.23861 22.9199 3.21646 22.8641 3.21277Z" fill="white"/>
<path d="M10.852 3.36871C10.7656 3.36871 10.5138 3.62568 10.4207 3.701C10.3764 3.73792 10.2675 3.83318 10.245 3.88671C10.2025 3.99157 10.2682 4.04769 10.3365 4.09827C10.3993 4.14516 10.5917 4.11525 10.677 4.05138C10.7393 4.00449 11.1399 3.64562 11.1639 3.60353C11.2799 3.39862 10.9867 3.36871 10.852 3.36871Z" fill="white"/>
<path d="M9.24034 3.36975C9.20638 3.37898 9.17132 3.38895 9.13735 3.39855C9.04762 3.43658 6.96381 4.08269 5.97619 4.29277C5.69116 4.35332 5.4028 4.39246 5.10891 4.43565C5.01882 4.44895 4.82795 4.43639 4.76519 4.48956C4.72458 4.52611 4.84455 4.71884 4.8789 4.77126C4.96604 4.90086 5.98801 4.94405 6.44249 4.82406C6.62635 4.77016 9.33264 3.82277 9.38803 3.75225C9.44488 3.67952 9.43085 3.49824 9.42312 3.46538C9.40353 3.38193 9.32305 3.36975 9.24034 3.36975Z" fill="white"/>
<path d="M20.9549 3.38293C20.8733 3.40472 20.747 3.36964 20.6961 3.44607C20.668 3.48705 20.6621 3.55351 20.6883 3.59375C20.72 3.64138 21.1613 4.00283 21.2137 4.02979C21.2831 4.06523 21.3735 4.06302 21.4603 4.06302C21.5334 4.06154 21.6844 4.00025 21.6663 3.88432C21.6619 3.85367 21.6412 3.82635 21.618 3.80494C21.5508 3.74402 21.4681 3.70488 21.395 3.65393C21.3326 3.61184 21.2624 3.55868 21.2 3.51659C21.1432 3.47376 21.0933 3.44164 21.0365 3.39881C21.0117 3.38663 20.9851 3.38478 20.9549 3.38293Z" fill="white"/>
<path d="M20.2971 3.73152C20.2232 3.74961 20.1383 3.78062 20.1527 3.8792C20.1542 3.89803 20.2698 3.98627 20.3137 4.0291C20.413 4.12879 20.4861 4.30158 20.6124 4.36951C20.7002 4.41714 20.8302 4.4751 20.9292 4.42452C21.0525 4.36434 21.0207 4.24324 21.0004 4.21703C20.91 4.09962 20.787 4.00953 20.6818 3.90431C20.6308 3.85336 20.5828 3.77952 20.5193 3.74998C20.4584 3.72229 20.3717 3.73152 20.2971 3.73152Z" fill="white"/>
<path d="M11.3488 3.74743C11.282 3.78619 11.1993 3.89289 11.1465 3.94975C11.1074 3.99147 11.0694 4.03319 11.031 4.07417C10.953 4.15355 10.7902 4.28979 10.9291 4.38726C10.9867 4.42751 11.0823 4.46037 11.1454 4.44191C11.1964 4.41828 11.2444 4.41385 11.2887 4.37619C11.3326 4.33927 11.3621 4.28499 11.3917 4.2381C11.4264 4.18568 11.543 4.02212 11.5722 3.99664C11.6324 3.94348 11.721 3.90323 11.6619 3.79579C11.6357 3.74706 11.412 3.71124 11.3488 3.74743Z" fill="white"/>
<path d="M22.393 3.75317C22.3339 3.77865 22.1275 3.85101 22.1312 3.91009C22.1375 3.99574 22.2615 4.0334 22.3368 4.05925C22.3937 4.07918 22.4447 4.11131 22.4971 4.13826C22.6042 4.19512 22.712 4.2516 22.8186 4.30846C22.9889 4.39412 23.1591 4.47977 23.3293 4.56543C23.5759 4.69539 23.8273 4.81502 24.0839 4.92172C24.3476 5.03137 24.6171 5.16244 24.908 5.21598C25.155 5.26139 25.4415 5.2481 25.714 5.2481C25.7358 5.24625 25.7579 5.24514 25.7793 5.24367C25.8159 5.24219 25.8521 5.24071 25.8886 5.23924C25.9078 5.23776 25.9263 5.23628 25.9451 5.23517C25.9566 5.23296 25.9684 5.23222 25.9802 5.23037C25.9916 5.2289 26.0034 5.22779 26.0152 5.22594C26.0238 5.22447 26.0319 5.22336 26.0407 5.22151C26.0666 5.21007 26.0932 5.19825 26.1198 5.18718C26.1803 5.14435 26.3224 4.9974 26.2626 4.92172C26.2065 4.85231 25.9691 4.83569 25.8757 4.81502C25.6715 4.77034 25.4688 4.72271 25.2698 4.67287C24.5495 4.4927 23.858 4.25751 23.169 4.0238C22.9918 3.95882 22.8142 3.89384 22.637 3.82849C22.5584 3.79932 22.4827 3.75613 22.393 3.75317Z" fill="white"/>
<path d="M9.61519 3.9274C9.48006 3.9333 8.99309 4.21464 8.79924 4.2955C8.25577 4.52662 7.68905 4.72267 7.12194 4.91171C6.97166 4.95749 6.82067 5.00364 6.67003 5.04868C6.57587 5.07526 6.46328 5.0904 6.37945 5.13692C6.35473 5.14984 6.33367 5.17237 6.32962 5.20079C6.32112 5.25138 6.36359 5.29088 6.39903 5.31746C6.44222 5.34922 6.48357 5.38614 6.53378 5.40497C6.61244 5.4334 6.704 5.43155 6.79592 5.43598C7.01044 5.44595 7.43686 5.51314 7.71525 5.39131C7.97148 5.27981 9.05473 4.70938 9.3405 4.55468C9.47527 4.47899 10.0671 4.20283 10.059 4.09354C10.0461 3.92112 9.76843 3.9274 9.61519 3.9274Z" fill="white"/>
<path d="M21.8485 4.10638C21.7998 4.13851 21.6705 4.23671 21.6871 4.30354C21.7063 4.37775 21.9471 4.48888 21.9866 4.51768C22.3543 4.79385 22.7209 5.0678 23.1045 5.31702C23.3157 5.45362 23.5302 5.59688 23.765 5.68512C23.9943 5.77114 24.2672 5.80105 24.5378 5.80105C24.5533 5.79994 24.5696 5.79846 24.5858 5.79736C24.6083 5.78739 24.6312 5.77853 24.6541 5.7693C24.7172 5.73016 24.8675 5.60205 24.8217 5.52045C24.8103 5.50088 24.7911 5.48685 24.7711 5.47762C24.7154 5.45879 24.6596 5.43959 24.6039 5.4204C24.5075 5.38532 24.4108 5.34951 24.3148 5.3148C24.0161 5.19481 23.7248 5.06448 23.435 4.92566C23.0377 4.73478 22.6471 4.53319 22.2638 4.322C22.1439 4.2537 22.0242 4.18466 21.905 4.11598C21.895 4.1134 21.8847 4.11081 21.8747 4.10749C21.8655 4.10749 21.8577 4.10675 21.8485 4.10638Z" fill="white"/>
<path d="M21.2734 4.35919C21.2508 4.37064 21.2302 4.38208 21.2143 4.40424C21.1862 4.44337 21.1766 4.49654 21.1589 4.54121C21.1415 4.58146 21.1235 4.62059 21.1054 4.6601C21.0998 4.68225 21.0995 4.70883 21.1087 4.72877C21.1316 4.77455 21.1921 4.77566 21.2328 4.7967C21.2675 4.81443 21.2992 4.83805 21.3288 4.86538C21.5972 5.11828 21.8497 5.38485 22.1214 5.6241C22.2222 5.71382 22.3105 5.82458 22.4253 5.88587C22.5172 5.93571 22.6287 5.95971 22.7325 5.98666C22.8931 6.02764 23.0493 6.0845 23.2302 6.0845C23.2959 6.05164 23.4912 5.99146 23.4583 5.88513C23.4569 5.88107 23.455 5.87701 23.4528 5.87294C23.4487 5.86667 23.4443 5.85965 23.4399 5.85338C23.3738 5.78027 23.2745 5.74298 23.1947 5.69314C23.0452 5.60047 22.9001 5.503 22.7535 5.40663C22.3969 5.17182 22.059 4.9023 21.7149 4.64422C21.5879 4.54896 21.5015 4.40091 21.3428 4.36399C21.3335 4.36288 21.3254 4.36215 21.3166 4.3603C21.3096 4.35956 21.3025 4.35956 21.2951 4.35956C21.2874 4.35919 21.2811 4.35919 21.2734 4.35919Z" fill="white"/>
<path d="M10.1953 4.36304C10.0978 4.39036 7.86892 5.6117 7.83678 5.6645C7.78326 5.75089 7.94793 5.88492 8.02989 5.90301C8.15208 5.92996 8.82738 5.86461 9.12015 5.68997C9.20545 5.6261 10.2145 4.83304 10.2939 4.76695C10.3906 4.68425 10.7059 4.52106 10.6708 4.45239C10.6309 4.37449 10.2872 4.33387 10.1953 4.36304Z" fill="white"/>
<path d="M10.8186 4.67277C10.7569 4.66502 10.4017 5.10548 9.55549 5.69769C9.48277 5.7479 9.31772 5.8535 9.28154 5.92845C9.22876 6.07465 9.47022 6.1112 9.55883 6.1112C9.57912 6.10936 10.0381 6.05065 10.2511 5.92697C10.3489 5.86974 11.3 4.91386 11.3296 4.87177C11.3428 4.85294 11.3528 4.75584 11.3488 4.74735C11.2985 4.67129 11.1405 4.72372 11.0515 4.71227C10.9832 4.70268 10.8858 4.68311 10.8186 4.67277Z" fill="white"/>
<path d="M20.6106 4.67712C20.5276 4.70297 20.4471 4.80155 20.4843 4.89976C20.5039 4.95255 20.5608 4.96363 20.6007 4.99686C20.6379 5.02935 20.6653 5.06627 20.6926 5.10504C20.8624 5.33985 21.0304 5.57799 21.2124 5.80542C21.2822 5.89182 21.3538 6.00184 21.4495 6.06867C21.5732 6.1558 21.8201 6.24183 21.9881 6.24183C22.0483 6.21155 22.1975 6.20601 22.2004 6.11445C22.2004 6.11076 22.2004 6.10633 22.1997 6.10227C22.1897 6.01513 22.0291 5.90142 21.9656 5.84161C21.7135 5.59977 21.4617 5.35794 21.2087 5.11611C21.1563 5.06258 21.1035 5.00941 21.0507 4.95625C21.002 4.90086 20.961 4.83958 20.9012 4.79195C20.8218 4.72771 20.7218 4.68045 20.6106 4.67712Z" fill="white"/>
<path d="M10.6112 6.52318C10.5728 6.53647 10.5861 6.60552 10.5968 6.64096C10.6156 6.70299 10.8634 7.1069 10.973 7.26898C11.0672 7.40854 11.1573 7.5518 11.2691 7.6825C11.6919 8.17871 12.2025 8.61918 12.7519 8.90162C12.8357 8.94371 13.2928 9.18148 13.3965 9.17188C13.4183 9.17003 13.4257 9.14899 13.4216 9.13644C13.4146 9.11022 13.3917 9.09472 13.3703 9.08106C13.2665 9.03232 13.1624 8.98322 13.0583 8.93448C12.8792 8.84993 12.7028 8.74766 12.5348 8.63911C12.1408 8.38362 11.7775 8.08124 11.443 7.71314C11.2902 7.54515 11.1879 7.37125 11.0495 7.1704C10.9188 6.98174 10.7452 6.63579 10.7013 6.56453C10.6784 6.52688 10.6463 6.50251 10.6112 6.52318Z" fill="white"/>
<path d="M21.1688 6.56396C21.1245 6.58759 20.8757 7.04837 20.6615 7.35961C20.4234 7.70445 20.1225 8.03674 19.7898 8.30478C19.5118 8.52926 19.2401 8.69282 18.9307 8.85453C18.7368 8.94868 18.4928 9.0587 18.447 9.09747C18.3857 9.14805 18.4167 9.18719 18.4884 9.18719C18.5511 9.16097 18.8362 9.04172 19.1234 8.88333C19.7278 8.5503 20.3418 7.99981 20.763 7.42607C20.9443 7.17833 21.1895 6.71571 21.2161 6.6511C21.2368 6.60052 21.2253 6.5695 21.1688 6.56396Z" fill="white"/>
<path fill-rule="evenodd" clip-rule="evenodd" d="M13.5547 1.0553C13.5547 1.0553 13.493 0.940112 13.6274 0.872916C13.7633 0.805351 14.7698 0.483032 15.9597 0.483032C17.2667 0.483032 18.4024 0.906514 18.4685 0.960418C18.5586 1.03352 18.4766 1.16976 18.3751 1.14945C18.2747 1.12952 17.2446 0.692373 15.9734 0.692373C14.7022 0.692373 13.8143 1.02983 13.736 1.07561C13.6429 1.12952 13.5547 1.0553 13.5547 1.0553Z" fill="white"/>
<path d="M12.1779 5.15045C12.1779 3.58907 13.8485 2.32343 15.9098 2.32343C17.9715 2.32343 19.6425 3.58907 19.6425 5.15045C19.6425 6.7122 17.9715 7.97784 15.9098 7.97784C13.8485 7.97784 12.1779 6.7122 12.1779 5.15045Z" stroke="white" stroke-width="0.2" stroke-miterlimit="3.864"/>
<path d="M15.6298 2.88165C15.6006 2.89864 15.5511 2.88793 15.5164 2.89199C15.3654 2.91193 15.2144 2.93076 15.0682 2.95845C14.6447 3.03709 14.2371 3.20249 13.8923 3.43916C13.8048 3.49934 13.7047 3.56838 13.6349 3.6544C13.6331 3.6581 13.6309 3.66142 13.6279 3.66548C13.6028 3.7072 13.5585 3.73895 13.5416 3.78474C13.5349 3.8032 13.5286 3.83162 13.5356 3.8523C13.5593 3.91987 13.6852 4.03617 13.7479 4.07346C13.7789 4.09229 13.8318 4.1281 13.8365 4.16723C13.8432 4.22705 13.8299 4.28427 13.8262 4.33707C13.8255 4.40833 13.8255 4.47958 13.8255 4.55084V5.60087V6.01881C13.8244 6.0801 13.8229 6.14028 13.821 6.2012C13.8129 6.23148 13.6925 6.34741 13.6641 6.3799C13.6265 6.42309 13.6069 6.47737 13.5759 6.52315C13.5755 6.52684 13.5737 6.53017 13.5722 6.53349C13.5903 6.55047 13.587 6.58333 13.5995 6.60401C13.6361 6.66419 13.697 6.72769 13.755 6.77237C14.2272 7.1412 14.9372 7.34464 15.5685 7.39522C15.8181 7.41479 16.0747 7.39633 16.3276 7.39633C16.349 7.37454 16.5059 7.37454 16.5491 7.37454C16.5694 7.35461 16.6794 7.35313 16.7149 7.35313C16.7356 7.33061 16.8046 7.33061 16.8371 7.33061C16.8497 7.31769 16.8736 7.31769 16.894 7.31769C16.9143 7.29627 16.9622 7.29627 16.9936 7.29627C17.0084 7.27966 17.0486 7.27449 17.0723 7.27449C17.0867 7.25898 17.1236 7.25234 17.1461 7.25234C17.1605 7.23646 17.2019 7.23092 17.2244 7.23092C17.2469 7.20618 17.3126 7.18736 17.347 7.18736C17.3639 7.16373 17.3946 7.16003 17.4186 7.14896C17.4795 7.11942 17.5401 7.08988 17.6002 7.06035C17.8111 6.93592 18.0005 6.76794 18.112 6.54826C18.1341 6.5058 18.1663 6.46445 18.1663 6.41128C18.1836 6.39393 18.1877 6.35996 18.1877 6.33301C18.2131 6.3079 18.2094 6.24994 18.2094 6.21117C18.2375 6.17942 18.2231 6.08232 18.2224 6.0369C18.2161 5.6053 17.8805 5.18994 17.5061 5.0297C17.4991 5.02675 17.4817 5.02601 17.4817 5.01678C17.5091 4.99795 17.5463 4.95992 17.5825 4.95992C17.6102 4.91857 17.701 4.88313 17.7431 4.84695C17.8314 4.77274 18.044 4.56303 18.044 4.45079C18.0588 4.43676 18.0654 4.41571 18.0654 4.39393C18.0832 4.37731 18.0876 4.34482 18.0876 4.31935C18.1186 4.28686 18.1094 4.20305 18.1094 4.15394C18.1371 4.12404 18.1179 4.05315 18.112 4.01881C18.0743 3.81316 17.9912 3.64111 17.8498 3.48974C17.8177 3.4554 17.7819 3.42993 17.7501 3.39744C17.6501 3.29369 17.5187 3.22723 17.3961 3.16594C17.052 2.99389 16.6525 2.90196 16.2356 2.88239C16.033 2.88202 15.8314 2.88165 15.6298 2.88165Z" fill="white"/>
<path d="M15.8427 3.25647C16.0786 3.25647 16.3116 3.27678 16.4932 3.38348C16.7753 3.54888 16.8591 3.8904 16.8174 4.2153C16.7915 4.40914 16.7269 4.59633 16.5804 4.72481C16.4371 4.84997 16.2514 4.88062 16.0568 4.90572C15.626 4.9611 15.18 4.8112 15.0574 4.39732C15.0275 4.29727 15.0042 4.18724 15.0027 4.07574C15.0053 4.02073 15.0083 3.96498 15.0109 3.91034C15.0293 3.89003 15.0323 3.83871 15.0323 3.80991C15.0471 3.79514 15.0548 3.76635 15.0548 3.74456C15.0666 3.73386 15.0759 3.71392 15.0759 3.69657C15.0843 3.68881 15.0891 3.67847 15.0891 3.66592C15.1128 3.64746 15.1549 3.58322 15.1549 3.55257C15.1888 3.53338 15.208 3.49572 15.2357 3.4695C15.3103 3.39972 15.4498 3.31333 15.5554 3.31333C15.5658 3.30151 15.5828 3.30041 15.599 3.30041C15.6215 3.27604 15.6861 3.27825 15.7212 3.27825C15.7474 3.24982 15.8106 3.27419 15.8427 3.25647Z" fill="black"/>
<path d="M15.7869 5.24817C16.0763 5.24817 16.3315 5.25223 16.5611 5.35819C17.051 5.58452 17.0965 6.39936 16.7575 6.773C16.512 7.04621 15.9833 7.09421 15.62 6.99858C15.5369 6.97606 15.4535 6.95834 15.3796 6.91662C15.2818 6.86013 15.2046 6.78777 15.1378 6.69546C15.0433 6.56513 14.989 6.37795 14.9809 6.20663C14.9765 6.11027 14.989 6.01464 14.989 5.92308C15.0071 5.90536 15.0108 5.86401 15.0108 5.83632C15.0267 5.82044 15.0322 5.7898 15.0322 5.76654C15.0466 5.75472 15.0547 5.73331 15.0547 5.71411C15.0706 5.70045 15.0891 5.66722 15.0891 5.64396C15.1278 5.61479 15.1533 5.55646 15.181 5.51769C15.2128 5.47339 15.3376 5.37038 15.39 5.37038C15.4081 5.34712 15.4557 5.32607 15.486 5.32607C15.4996 5.3102 15.5336 5.30466 15.5554 5.30466C15.5724 5.28583 15.6159 5.28287 15.6429 5.28287C15.6746 5.24891 15.7514 5.27844 15.7869 5.24817Z" fill="black"/>
<path d="M19.258 1.13905C19.3133 1.1228 19.3672 1.13536 19.4042 1.17523C19.4392 1.21363 19.4293 1.27824 19.3842 1.30335C19.3477 1.32365 19.2989 1.3255 19.258 1.3362C19.1527 1.36353 18.7913 1.41632 18.7713 1.54185C18.7606 1.61422 18.8563 1.69803 18.8928 1.72387C18.9427 1.76744 18.8563 1.68548 18.9061 1.72904C18.9788 1.79291 19.1409 1.90478 19.0534 2.01961C19.032 2.0473 18.9969 2.06022 18.9607 2.05653C18.7883 2.03918 18.5531 1.69692 18.5328 1.64043C18.5081 1.57028 18.5181 1.49829 18.5579 1.44032C18.6927 1.24723 19.0508 1.20994 19.258 1.13905Z" fill="black"/>
<path d="M22.1341 1.69579C22.1248 1.84237 22.5447 1.81246 22.6469 1.82169C22.7987 1.83535 23.094 1.94464 23.1505 1.89406C23.2188 1.83314 23.2915 1.54442 23.169 1.53888C22.991 1.5315 22.9238 1.55143 22.7256 1.56657C22.5218 1.57912 22.1433 1.55291 22.1341 1.69579Z" fill="white"/>
<path d="M9.70717 1.74671C9.71308 1.84787 9.28371 1.84676 9.1818 1.85599C9.03043 1.86966 8.78784 1.97377 8.70626 1.88369C8.64459 1.81612 8.56558 1.61896 8.6889 1.61379C8.86612 1.60604 8.99129 1.61822 9.1888 1.63336C9.39373 1.64592 9.69796 1.60013 9.70717 1.74671Z" fill="white"/>
<path d="M12.9599 1.10918C13.1607 1.15939 13.2755 1.15385 13.3915 1.34289C13.4498 1.43666 13.4535 1.58693 13.3557 1.71689C13.2925 1.80181 13.2685 1.82839 13.1991 1.91294C13.1282 1.9986 13.1197 2.05657 12.9998 2.07392C12.9599 2.07983 12.9255 2.07023 12.9034 2.0381C12.824 1.92328 12.9927 1.78409 13.0817 1.68367C13.1157 1.64527 13.1925 1.53118 13.1799 1.48355C13.1563 1.32664 12.968 1.32923 12.8432 1.29046C12.7974 1.27569 12.6697 1.25206 12.6294 1.22659C12.5811 1.19594 12.5955 1.13687 12.6243 1.09293C12.6468 1.0586 12.7635 1.06303 12.9599 1.10918Z" fill="black"/>
<path d="M21.8141 1.64602C21.8572 1.6571 21.9119 1.65821 21.9204 1.711C21.93 1.77672 21.8801 1.83912 21.7469 1.85389C21.6542 1.84429 21.467 1.67888 21.3942 1.82472C21.3319 1.94804 21.7243 1.99714 21.7066 2.11935C21.6926 2.22162 21.6553 2.23823 21.5648 2.23823C21.5239 2.24045 21.4271 2.18137 21.3942 2.16919C21.3042 2.12747 21.0908 1.958 21.0103 2.09387C20.9309 2.22826 21.4729 2.41065 21.4585 2.51551C21.4441 2.61482 21.3444 2.6931 21.2691 2.66725C21.165 2.64215 20.8316 2.25079 20.6802 2.40438C20.5406 2.54615 21.0981 2.79463 21.0705 2.88102C21.0232 3.02612 20.8962 3.06932 20.7193 2.92237C20.627 2.84558 20.4816 2.7027 20.3985 2.81457C20.2962 2.95265 20.5909 3.12655 20.6167 3.1727C20.6813 3.289 20.5329 3.42339 20.435 3.40124C20.3442 3.38905 20.2102 3.04643 20.0832 3.16421C19.9857 3.25392 20.2239 3.46769 20.1991 3.55298C20.1892 3.63236 19.9872 3.73685 19.8934 3.66338C19.7646 3.57772 20.0684 3.13245 19.7701 2.71266C19.6257 2.53434 19.5083 2.25743 19.5002 2.2087C19.4888 2.12341 19.495 1.97683 19.5497 1.90373C19.7587 1.6235 20.7068 1.64233 21.1118 1.6235C21.3832 1.61058 21.536 1.64602 21.8141 1.64602Z" fill="white"/>
<path d="M9.96383 1.68738C9.90918 1.68738 9.86193 1.69919 9.8538 1.75384C9.84347 1.82103 9.85342 1.92773 9.96714 1.93069C10.1012 1.9329 10.2647 1.75457 10.343 1.86718C10.4316 1.99419 9.97378 2.07062 10.0469 2.22494C10.141 2.4221 10.3267 2.24156 10.3607 2.22938C10.453 2.18618 10.741 1.92958 10.858 2.09868C10.9618 2.24747 10.4888 2.46345 10.4316 2.53434C10.4154 2.55502 10.3818 2.66652 10.3947 2.69384C10.4981 2.92349 10.7591 2.70344 10.9341 2.51182C10.9991 2.44056 11.0463 2.40143 11.1113 2.38444C11.201 2.36118 11.2793 2.3789 11.3033 2.45939C11.3177 2.50517 11.3041 2.55908 11.2704 2.59046C11.2339 2.62554 10.8263 2.91979 10.8399 3.00767C10.868 3.18599 10.9758 3.20962 11.0548 3.17159C11.1397 3.13393 11.3782 2.72891 11.5189 2.78245C11.5562 2.79685 11.6027 2.80312 11.6175 2.83894C11.6382 2.88804 11.63 2.95671 11.599 2.99807C11.5595 3.05123 11.485 3.12101 11.4348 3.16532C11.3919 3.20298 11.3443 3.24765 11.3188 3.29454C11.2524 3.41379 11.3509 3.46844 11.4599 3.46844C11.4983 3.46844 11.5189 3.44702 11.5455 3.42413C11.612 3.36764 11.681 3.11584 11.8158 3.18304C11.9568 3.25393 11.6958 3.4533 11.7216 3.59471C11.76 3.70141 11.9295 3.72319 11.9764 3.64381C12.0281 3.51717 11.9974 3.32186 12.0495 3.10181C12.1001 2.90466 12.2418 2.60301 12.3101 2.48413C12.3537 2.41398 12.4065 2.35897 12.4264 2.27516C12.4279 2.26925 12.429 2.26371 12.4301 2.2578C12.4416 2.16956 12.3858 2.09683 12.326 2.04293C12.2278 1.95321 12.0952 1.8982 11.9723 1.85721C11.6098 1.73648 11.2217 1.72541 10.806 1.70621C10.5265 1.69255 10.2489 1.68738 9.96383 1.68738Z" fill="white"/>
<path d="M19.735 3.94571C19.786 3.8427 20.0175 3.95568 20.0389 3.97525C20.1028 4.03137 20.1246 4.1233 20.1718 4.19049C20.2298 4.2732 20.3804 4.4482 20.3719 4.54198C20.3649 4.61804 20.0721 4.8451 20.0083 4.79156C20.0064 4.78972 20.0049 4.78713 20.002 4.78492C19.9588 4.50211 19.8654 4.23037 19.7284 3.97598C19.7284 3.96491 19.7313 3.95457 19.735 3.94571Z" fill="white"/>
<path d="M20.0519 4.93433C20.1324 4.93433 20.2697 4.96571 20.3255 5.01481C20.3716 5.05506 20.3949 5.11561 20.4278 5.16545L20.5976 5.40507L20.9919 5.93488L21.1724 6.16785C21.2061 6.22508 21.1968 6.26754 21.147 6.30704L21.1163 6.3111C20.9328 6.3111 20.6478 6.2428 20.523 6.13277C20.4606 6.07739 20.4274 6.01167 20.3875 5.94559L20.1948 5.5893C20.1638 5.53613 20.053 5.37331 20.0335 5.31535C20.0312 5.3087 20.0283 5.29984 20.0261 5.2895C20.029 5.24335 20.0301 5.1972 20.0301 5.15031C20.0301 5.08866 20.0279 5.027 20.0235 4.96571C20.0301 4.94799 20.0394 4.93617 20.0519 4.93433Z" fill="white"/>
<path d="M11.368 5.11219C11.4736 4.96598 11.6109 4.84525 11.739 4.86482C11.7686 4.86593 11.79 4.877 11.804 4.89362C11.7944 4.97817 11.79 5.06419 11.79 5.15059L11.7911 5.19046L11.7878 5.19932C11.7516 5.32891 11.7383 5.29901 11.6508 5.46847C11.5179 5.72507 11.3728 6.09207 11.2871 6.13157C11.1623 6.18917 10.9722 6.18215 10.8349 6.21649C10.6384 6.26633 10.4989 6.21538 10.4989 6.12382C10.4996 6.00641 11.2893 5.23107 11.368 5.11219Z" fill="white"/>
<path d="M11.42 6.32429C11.5355 6.33536 11.5721 6.48932 11.7083 6.52181C11.7947 6.54249 11.8948 6.49597 11.9627 6.45683C12.0066 6.43136 12.0679 6.38114 12.1263 6.38742C12.5176 7.07341 13.2247 7.63202 14.1089 7.95803C14.1108 7.96172 14.1122 7.96505 14.1141 7.96874C14.1211 8.00307 14.1111 8.0315 14.0993 8.0459C14.0528 8.09907 13.6027 8.80721 13.5108 8.82936C13.4303 8.85779 13.1213 8.6599 13.0101 8.59935C12.4235 8.28183 11.8685 7.8565 11.4392 7.30343C11.3033 7.12953 10.9197 6.68316 10.9241 6.49892C10.9278 6.36896 11.352 6.32133 11.42 6.32429Z" fill="white"/>
<path d="M20.4339 6.42935C20.4826 6.40978 20.833 6.53938 20.8389 6.6254C20.8356 6.69629 20.6211 6.99682 20.3807 7.31914C19.9595 7.88477 19.437 8.26764 18.8533 8.59291C18.7278 8.66269 18.5945 8.72619 18.4616 8.78121L18.349 8.82551C18.3139 8.82551 18.2821 8.81628 18.26 8.79265C18.2149 8.74613 17.7597 8.06753 17.7383 8.03836C17.7209 8.0151 17.7258 7.97522 17.742 7.94753C18.5716 7.63408 19.2425 7.11608 19.6386 6.4803C19.7055 6.46184 19.8225 6.56227 19.8734 6.58737C19.962 6.63094 20.0739 6.67487 20.1832 6.6446C20.2977 6.61322 20.3442 6.47033 20.4339 6.42935Z" fill="white"/>
<path d="M16.5277 8.23688C16.5739 8.2642 16.5979 8.31626 16.6152 8.35133C16.6503 8.42296 16.7614 9.0687 16.8194 9.32087C16.8371 9.40468 16.8604 9.53427 16.8467 9.62251C16.8349 9.69968 16.7456 9.80749 16.6525 9.82004C16.5754 9.83149 16.421 9.71482 16.3948 9.65648C16.3609 9.57932 16.3664 9.4848 16.3583 9.39471C16.338 9.12298 16.2981 8.46837 16.2981 8.39822C16.2981 8.35687 16.3117 8.293 16.355 8.25349C16.4129 8.24869 16.4705 8.24352 16.5277 8.23688Z" fill="white"/>
<path d="M17.0597 8.14819C17.0845 8.16998 17.1029 8.19693 17.1177 8.2165C17.1665 8.28295 17.3939 8.91541 17.4969 9.16093C17.5305 9.24179 17.577 9.36916 17.5785 9.46036C17.5803 9.54085 17.5094 9.66564 17.4183 9.69444C17.3415 9.71991 17.1653 9.63019 17.1288 9.57518C17.0801 9.50356 17.069 9.40719 17.0442 9.31711C16.9756 9.04611 16.8183 8.39187 16.8057 8.32135C16.7998 8.28775 16.8002 8.23828 16.8194 8.19508C16.901 8.18142 16.9804 8.16555 17.0597 8.14819Z" fill="white"/>
<path d="M17.5456 8.01581C17.5774 8.03538 17.6025 8.06307 17.6224 8.08374C17.6786 8.14355 17.9817 8.74389 18.1139 8.97464C18.1563 9.05107 18.2187 9.17143 18.232 9.26188C18.2427 9.34126 18.1877 9.47344 18.1006 9.51405C18.0278 9.54802 17.8417 9.48046 17.7986 9.43061C17.7417 9.36526 17.7192 9.27112 17.6837 9.18472C17.5822 8.92406 17.3467 8.29382 17.3256 8.22515C17.3142 8.1886 17.3086 8.13063 17.33 8.08116C17.4028 8.06085 17.4751 8.03944 17.5456 8.01581Z" fill="white"/>
<path d="M15.9948 8.27075C16.0369 8.30435 16.0539 8.35825 16.0672 8.39444C16.0934 8.47049 16.1255 9.1251 16.1513 9.38281C16.1591 9.46735 16.1669 9.59953 16.1425 9.68482C16.1207 9.76014 16.0196 9.85613 15.9258 9.85761C15.8475 9.85871 15.7079 9.72506 15.6898 9.66377C15.6647 9.58292 15.6828 9.48988 15.685 9.39868C15.6983 9.12694 15.7375 8.47234 15.7463 8.4033C15.7511 8.36342 15.7711 8.30509 15.8146 8.27075C15.8471 8.27149 15.8789 8.27149 15.9099 8.27149C15.9383 8.27149 15.9667 8.27149 15.9948 8.27075Z" fill="white"/>
<path d="M15.5023 8.25656C15.5362 8.29533 15.5444 8.35034 15.551 8.38689C15.5654 8.46627 15.4945 9.11718 15.4805 9.37637C15.4742 9.46091 15.4613 9.59272 15.424 9.67321C15.3904 9.7441 15.2756 9.82311 15.1833 9.80982C15.105 9.79911 14.9895 9.64441 14.9806 9.58128C14.9688 9.4971 15.0005 9.40849 15.0168 9.31914C15.0725 9.05257 15.2143 8.41199 15.2335 8.34517C15.2427 8.31194 15.266 8.26763 15.3026 8.2381C15.3686 8.24511 15.4355 8.25139 15.5023 8.25656Z" fill="white"/>
<path d="M15.006 8.19583C15.0477 8.24272 15.0459 8.30991 15.0466 8.35348C15.0466 8.43397 14.8638 9.06273 14.8044 9.3149C14.7837 9.39797 14.7483 9.52498 14.6973 9.59845C14.6523 9.66195 14.5256 9.71992 14.437 9.69075C14.3624 9.66638 14.2742 9.4947 14.2764 9.43046C14.2794 9.34591 14.3263 9.26395 14.3588 9.17866C14.4592 8.92575 14.7099 8.31988 14.7405 8.25712C14.7564 8.2261 14.7867 8.18549 14.8291 8.16223C14.8867 8.17515 14.9462 8.18586 15.006 8.19583Z" fill="white"/>
<path d="M14.52 8.08934C14.5496 8.14102 14.5374 8.20305 14.5315 8.24403C14.5197 8.32304 14.2405 8.91636 14.1423 9.15635C14.1091 9.23499 14.0537 9.35498 13.9924 9.41885C13.9378 9.47534 13.803 9.51226 13.72 9.4698C13.6505 9.43399 13.5907 9.25049 13.6029 9.18736C13.6188 9.10466 13.6779 9.03082 13.7233 8.9518C13.8621 8.71773 14.2044 8.15875 14.2446 8.10115C14.2612 8.07752 14.2889 8.04909 14.3236 8.03174C14.3882 8.05241 14.4543 8.07124 14.52 8.08934Z" fill="white"/>
<path d="M11.8939 3.92245C11.9621 3.90547 12.098 3.85341 12.1231 3.92024C11.9777 4.17536 11.8769 4.44783 11.8267 4.73249C11.7738 4.76314 11.6409 4.68597 11.5047 4.62875C11.3205 4.5501 11.5952 4.39393 11.6908 4.25289C11.7425 4.17647 11.8281 3.97488 11.8939 3.92245Z" fill="white"/>
<path d="M11.8096 5.46566C11.8469 5.73629 11.9277 5.99584 12.0488 6.241C12.0219 6.29084 11.7505 6.39385 11.604 6.27016C11.5212 6.16789 11.7158 5.45385 11.8096 5.46566Z" fill="white"/>
<path d="M30.5691 0.837769C30.6359 0.837769 30.695 0.837769 30.7474 0.864721C30.8198 0.901642 31.0335 1.11357 31.0313 1.19885C31.0299 1.24427 30.7629 1.32771 30.6429 1.37312C30.5536 1.41336 30.3524 1.49385 30.318 1.50493C30.2955 1.51305 30.1356 1.51453 30.109 1.51379C30.0729 1.5149 29.8237 1.51748 29.7192 1.51748C29.6771 1.51896 28.918 1.53889 28.6599 1.53889C28.373 1.53889 28.0913 1.54554 27.8056 1.54554C27.7417 1.54554 27.4153 1.55071 27.3961 1.55292H26.1715H25.906L25.8015 1.55699L25.7361 1.56105H24.9475C24.8877 1.56105 24.489 1.57286 24.311 1.5832C24.0655 1.60351 23.7037 1.63415 23.6878 1.63526C23.6398 1.63526 23.5438 1.65335 23.5294 1.59981C23.5143 1.54259 23.6328 1.51563 23.6701 1.50862C24.1091 1.42222 24.5495 1.317 25.0465 1.25497C25.8731 1.15123 26.2711 1.13867 26.4059 1.0988C26.4842 1.0748 26.4683 0.972899 26.4059 0.965145C25.5194 0.860659 23.5368 1.24944 23.2521 1.30851C22.7234 1.42259 22.3317 1.45102 22.2014 1.45213H20.9686C20.2829 1.45102 19.9861 1.52634 19.9392 1.53557C19.8067 1.56585 19.6815 1.60757 19.5637 1.66849C19.3141 1.7966 19.1554 1.95462 19.2606 2.25442C19.2979 2.31903 19.3333 2.40801 19.3695 2.47262C19.4544 2.64135 19.5637 2.84921 19.652 3.01425C19.7158 3.13166 19.7554 3.27897 19.7554 3.42629L19.7199 3.60941C19.7177 3.64079 19.6409 3.77592 19.6007 3.75193C19.5966 3.74897 19.5896 3.74122 19.5804 3.73088C19.532 3.65999 19.4807 3.59021 19.426 3.52265C19.4083 3.49791 19.3943 3.47797 19.388 3.47059C19.3241 3.38715 19.5087 3.27306 19.4917 3.1671C19.457 2.95702 19.1484 2.55495 18.9165 2.36334C18.7807 2.2511 18.6547 2.10231 18.534 1.96496C18.4842 1.89666 18.4284 1.84017 18.3778 1.7726C18.3335 1.71279 18.3129 1.6755 18.2948 1.6024C18.2597 1.45656 18.3472 1.36795 18.4413 1.293C18.4975 1.24833 18.6038 1.18187 18.6906 1.14643C18.9246 1.05006 19.4736 0.952592 19.7985 0.910133C19.9064 0.899426 20.17 0.868044 20.3671 0.863982C20.5872 0.863982 20.7969 0.870628 21.0029 0.886504C21.4046 0.917887 21.7971 0.992836 22.2146 0.998743C22.8224 1.00834 23.4072 0.970314 23.9968 0.941885C24.2597 0.929332 24.537 0.911979 24.8183 0.88835C25.2499 0.851429 26.5658 0.868044 26.76 0.880227C26.8556 0.885766 27.7269 0.921579 28.1674 0.955546C28.2652 0.96293 28.3446 0.97216 28.4077 0.983236C28.6012 0.979175 28.7932 0.987667 28.9826 0.976222C29.3367 0.9537 29.6918 0.914564 30.0415 0.886504L30.5691 0.837769Z" fill="white"/>
<path d="M6.19668 0.803276C6.75862 0.803276 7.25557 0.850534 7.79831 0.876748C8.07704 0.889301 8.34695 0.895208 8.62569 0.908131C8.90667 0.921422 9.19501 0.942836 9.48077 0.942836C9.99323 0.942836 10.4762 0.909607 10.975 0.886347L11.3586 0.88524C11.5978 0.881178 11.8622 0.87121 12.104 0.89447C12.2546 0.9085 12.4068 0.909607 12.5526 0.926591C12.7509 0.949482 13.0935 0.990095 13.2375 1.05508C13.3704 1.11415 13.4671 1.20387 13.5181 1.26035C13.6159 1.36816 13.7618 1.53652 13.6801 1.66353C13.6466 1.7274 13.5531 1.82044 13.5044 1.87656C13.4394 1.9493 12.9318 2.37093 12.8055 2.55037C12.691 2.71023 12.6578 2.8306 12.5873 2.95613C12.4909 3.11747 12.5969 3.23746 12.5614 3.33198C12.4566 3.44348 12.3602 3.55978 12.2742 3.68162C12.2554 3.69196 12.2388 3.69528 12.2255 3.68568C12.1383 3.62476 12.1553 3.49443 12.1764 3.32533C12.1856 3.19796 12.2879 2.93471 12.3251 2.86678C12.3968 2.73165 12.6279 2.4481 12.6464 2.39678C12.7944 1.98179 12.382 1.72519 12.0686 1.62292C11.9644 1.58895 11.8603 1.55018 11.751 1.53025C11.3471 1.45714 10.9144 1.46527 10.4788 1.4516C10.1793 1.44237 9.86366 1.43056 9.55869 1.43056L8.90038 1.42908C8.69031 1.41247 8.47765 1.40028 8.28159 1.35376C7.94561 1.27402 7.66392 1.20091 7.32794 1.1267C7.04217 1.06394 6.73351 1.00929 6.42816 0.990095C6.22031 0.977172 5.85849 0.954282 5.64287 0.954282C5.48411 0.954282 4.30817 0.942098 4.13429 0.990464C4.07409 1.00228 4.08369 1.11563 4.1243 1.12559C4.35026 1.19021 5.1891 1.20867 5.74513 1.18947C6.07189 1.20534 6.43702 1.24596 6.74606 1.29026C7.1459 1.34712 7.51511 1.41985 7.88579 1.53726L8.28159 1.64064C8.34695 1.66095 8.43222 1.70451 8.34287 1.7658C8.0981 1.7658 7.87176 1.71817 7.62366 1.71448C6.99896 1.71448 6.09774 1.69565 5.47117 1.69565C5.40584 1.69159 2.36835 1.6591 2.00579 1.63842C1.60226 1.61516 1.23858 1.4217 1.10271 1.35487C1.05102 1.33198 0.898904 1.21383 0.908149 1.19057C0.937302 1.11563 1.10271 0.833181 1.23231 0.822844C1.507 0.848688 1.84555 0.88524 2.12875 0.897793C2.12875 0.897793 4.15753 0.875271 4.21734 0.870841C4.52305 0.846842 5.2493 0.815459 5.56312 0.809921C5.737 0.806968 6.03128 0.795891 6.19668 0.803276Z" fill="white"/>
<path d="M20.0399 5.60609C20.1337 5.59427 20.329 6.40321 20.2049 6.46449C20.0794 6.53132 19.7807 6.3781 19.746 6.33749C19.7394 6.33047 19.7357 6.32198 19.735 6.31312C19.849 6.09824 19.9321 5.87228 19.9805 5.6371C19.9967 5.62048 20.0152 5.61125 20.0399 5.60609Z" fill="white"/>
<path d="M15.9805 0.865967C14.9645 0.865967 13.8749 1.15321 13.8343 1.21524C13.7402 1.36329 13.9425 1.35738 13.9373 1.56303C13.9311 1.81483 13.7354 1.98356 13.6674 2.05629C13.4086 2.33098 13.0786 2.47091 12.8504 2.77773C12.833 2.80062 12.8161 2.90399 12.8393 2.93575C12.8995 3.01623 13.0409 2.92725 13.0749 2.9003C13.5548 2.52482 14.0053 2.37418 14.5495 2.20508C14.6846 2.16262 15.3702 2.01937 16.2549 2.0574C17.0368 2.091 17.7579 2.29554 18.3856 2.66401C18.6362 2.81095 18.86 2.99371 19.0978 3.19124C19.1841 3.26397 19.2517 3.15764 19.2547 3.11813C19.258 3.07235 19.2207 3.00774 19.1971 2.96934C19.0165 2.6677 18.6182 2.39523 18.342 2.07106C18.2054 1.91046 18.1371 1.85249 18.0858 1.76056C17.917 1.47516 18.1751 1.45891 18.1426 1.32822C18.1175 1.2241 17.1166 0.865967 15.9805 0.865967Z" fill="white"/>
</g>
<defs>
<clipPath id="clip0_0_64">
<rect width="32" height="10.6562" fill="white"/>
</clipPath>
</defs>
</svg>
