<svg width="32" height="13" viewBox="0 0 32 13" fill="none" xmlns="http://www.w3.org/2000/svg">
<g clip-path="url(#clip0_0_24701)">
<path d="M15.9999 0.187134C7.22282 0.187134 0.187103 2.81797 0.187103 6.11644C0.187103 9.39482 7.2808 12.046 15.9999 12.046C24.7191 12.046 31.8129 9.38593 31.8129 6.11644C31.8129 2.84696 24.7191 0.187134 15.9999 0.187134Z" fill="black"/>
<path d="M22.2284 7.37248C22.2327 7.39964 22.2683 7.42565 22.3028 7.43796C22.3155 7.4422 22.3218 7.45069 22.3085 7.47955C22.21 7.69059 22.1195 7.81227 21.9961 7.99564C21.8825 8.16508 21.7546 8.29726 21.5998 8.42442C21.3662 8.61768 21.0419 8.82807 20.7737 8.68664C20.6546 8.62483 20.6031 8.45813 20.6054 8.32318C20.611 7.94369 20.7799 7.5541 21.0916 7.1712C21.4716 6.70333 21.8918 6.46065 22.1675 6.5933C22.4528 6.72936 22.3617 7.05964 22.234 7.31889C22.2241 7.33898 22.2241 7.35594 22.2283 7.37235M25.2896 4.4155C25.3101 4.37929 25.2885 4.35284 25.2428 4.35284C25.0045 4.35284 24.6919 4.35338 24.4436 4.35338C24.3845 4.35338 24.3539 4.36044 24.3261 4.41561C24.2344 4.59118 23.1177 6.26487 22.9098 6.58989C22.8747 6.63939 22.832 6.63245 22.827 6.57573C22.806 6.38269 22.6393 6.16078 22.3766 6.0546C22.1764 5.97342 21.9807 5.9587 21.7773 5.98571C21.41 6.03508 21.0827 6.22883 20.7951 6.44736C20.3614 6.77699 19.9873 7.20425 19.5044 7.51993C19.2408 7.69178 18.8797 7.84165 18.6381 7.61793C18.4195 7.41523 18.4442 6.96504 18.7787 6.61684C18.814 6.58035 18.8562 6.61117 18.8496 6.64356C18.818 6.80103 18.8567 6.95763 18.9763 7.06744C19.1222 7.19827 19.3311 7.21303 19.5099 7.12571C19.7208 7.02118 19.8448 6.81936 19.8809 6.5903C19.9368 6.23497 19.6633 5.92158 19.321 5.89643C19.043 5.87691 18.7764 5.97364 18.5166 6.18807C18.3863 6.29613 18.3123 6.37596 18.1997 6.53617C18.1722 6.57563 18.1301 6.57957 18.1313 6.5213C18.1441 6.06637 17.9561 5.81041 17.58 5.80207C17.288 5.795 16.9762 5.95348 16.7331 6.1473C16.4666 6.36131 16.2336 6.64494 15.9837 6.91144C15.9526 6.94425 15.9256 6.94269 15.9168 6.87904C15.9098 6.57762 15.8335 6.28567 15.6941 6.07834C15.6447 6.00621 15.5408 5.97055 15.4535 6.01921C15.4132 6.04127 15.273 6.10578 15.1708 6.18798C15.1202 6.22971 15.1004 6.29011 15.1229 6.36752C15.2575 6.81784 15.228 7.32985 15.0452 7.76228C14.8774 8.15834 14.5514 8.51554 14.1682 8.63644C13.9158 8.7165 13.6533 8.67733 13.4909 8.45351C13.2679 8.14463 13.358 7.60744 13.6904 7.1614C13.9838 6.76864 14.4083 6.51915 14.8316 6.3585C14.8813 6.33927 14.8917 6.3073 14.8775 6.26501C14.8546 6.19542 14.8178 6.10064 14.803 6.05739C14.7641 5.95399 14.6554 5.93729 14.5227 5.95172C14.2151 5.98751 13.9376 6.09289 13.6635 6.23965C12.9458 6.62397 12.586 7.3678 12.4283 7.76573C12.3524 7.9569 12.2874 8.07614 12.2035 8.18188C12.0904 8.32408 11.9483 8.45356 11.6886 8.68164C11.6652 8.70257 11.6476 8.74613 11.6674 8.78672C11.6939 8.8416 11.829 9.03236 11.8671 9.04938C11.9094 9.07017 11.9584 9.04088 11.9781 9.02702C12.1598 8.90382 12.3772 8.70857 12.4836 8.57614C12.521 8.53074 12.5593 8.54984 12.5791 8.61872C12.6784 8.97296 12.9384 9.26221 13.2979 9.38321C13.956 9.60513 14.6385 9.28391 15.1537 8.72469C15.4812 8.36925 15.5993 8.14064 15.7248 7.98526C15.9375 7.72173 16.3571 7.13218 16.8568 6.75367C17.0401 6.61407 17.257 6.5076 17.366 6.57832C17.4536 6.63504 17.4819 6.76684 17.3414 7.02224C16.8319 7.95264 16.0823 9.04577 15.9448 9.31084C15.9196 9.35681 15.9419 9.39301 15.9897 9.39301C16.2564 9.39169 16.5207 9.39236 16.7627 9.39236C16.803 9.39095 16.821 9.37199 16.8412 9.34356C17.2322 8.7315 17.6002 8.14898 17.9946 7.54669C18.0167 7.51119 18.037 7.53819 18.0379 7.55375C18.0463 7.69349 18.0803 7.88461 18.1633 8.01013C18.3124 8.24215 18.5237 8.34185 18.758 8.34338C18.9445 8.34621 19.0388 8.3172 19.2399 8.24209C19.4035 8.18141 19.5348 8.10179 19.6356 8.02972C19.6944 7.9887 19.7048 8.05731 19.7033 8.06777C19.6128 8.55367 19.7246 9.12939 20.2075 9.3681C20.7854 9.65305 21.4203 9.25254 21.7856 8.89098C21.8214 8.85619 21.8597 8.85986 21.8634 8.93497C21.8719 9.07301 21.9336 9.23682 22.0478 9.35146C22.3539 9.6587 22.9717 9.53693 23.5916 9.05708C23.9897 8.74984 24.4062 8.31578 24.7824 7.85614C24.7965 7.83832 24.8067 7.80975 24.7795 7.78075C24.7223 7.72078 24.6394 7.65218 24.5826 7.59935C24.5567 7.57729 24.5186 7.58364 24.4969 7.60011C24.1112 7.96686 23.7641 8.38511 23.2624 8.73099C23.0932 8.8491 22.8235 8.94438 22.7024 8.78037C22.6551 8.71673 22.6605 8.62872 22.7066 8.51319C22.8529 8.14841 25.1688 4.62242 25.2891 4.41446" fill="white"/>
<path d="M14.3935 4.84095C14.4034 4.89328 14.4238 4.90348 14.4476 4.89909C14.5655 4.87547 14.6946 4.77844 14.771 4.66596C14.8406 4.56398 14.8733 4.41682 14.8041 4.35785C14.7425 4.30481 14.6421 4.31979 14.5676 4.38556C14.4194 4.51654 14.3744 4.70237 14.3935 4.84106M8.49081 9.37978C7.6273 9.38544 6.86655 8.85216 6.77925 7.92835C6.73074 7.41643 6.87544 6.96021 7.16512 6.58434C7.42218 6.24942 7.85713 5.97118 8.22531 5.90321C8.34511 5.88128 8.50608 5.89472 8.57263 5.97449C8.67701 6.09599 8.64701 6.22945 8.54263 6.28271C8.26174 6.42612 7.92376 6.67163 7.75652 7.00688C7.62088 7.28051 7.59347 7.61027 7.80065 7.92443C8.14743 8.44798 9.11405 8.46238 10.0128 7.62741C10.2354 7.42306 10.4346 7.22672 10.6371 6.99414C11.0329 6.54153 11.1646 6.3766 11.6908 5.64672C11.6964 5.63824 11.6992 5.62719 11.6964 5.62182C11.6922 5.61192 11.6851 5.6105 11.6694 5.60908C11.3182 5.61898 11.0119 5.72352 10.7142 5.94598C10.6285 6.0085 10.5051 5.99973 10.4511 5.91741C10.391 5.82434 10.4341 5.70318 10.533 5.63477C11.0119 5.30173 11.535 5.24133 12.0692 5.15117C12.0687 5.15117 12.1063 5.15258 12.1368 5.11241C12.3561 4.83097 12.5217 4.5771 12.7555 4.29248C12.991 4.0037 13.2953 3.73852 13.5277 3.53933C13.8522 3.26032 14.0603 3.16643 14.2718 3.05135C14.3275 3.02221 14.2647 2.98742 14.2477 2.98742C13.067 2.7655 11.8397 2.47834 10.6671 2.91245C9.85493 3.21551 9.49903 3.85953 9.67022 4.28987C9.792 4.59513 10.1935 4.64475 10.5693 4.46082C10.8815 4.30787 11.1704 4.06135 11.3752 3.74401C11.4898 3.56778 11.7312 3.69493 11.6007 4.00095C11.2576 4.80747 10.602 5.44722 9.80353 5.47424C9.12395 5.4963 8.68548 4.99635 8.68691 4.37956C8.68974 3.16303 10.044 2.36167 11.4673 2.24187C13.1814 2.10021 14.8049 2.55679 16.5068 2.76323C17.8107 2.92113 19.0609 2.92442 20.3715 2.62333C20.5265 2.58967 20.6352 2.68853 20.6251 2.84503C20.6123 3.07123 20.4371 3.28909 20.0054 3.52452C19.5145 3.79377 19.0009 3.87547 18.4645 3.87985C17.1675 3.89117 15.9593 3.38507 14.709 3.1134C14.7104 3.16814 14.7249 3.23333 14.679 3.26789C13.9865 3.7787 13.3605 4.29744 12.9413 5.02602C12.9271 5.04285 12.9342 5.05884 12.9592 5.05714C13.3232 5.03776 13.6506 5.02842 13.9904 5.00126C14.0498 4.9956 14.0521 4.98146 14.0468 4.93818C14.0167 4.68705 14.0901 4.40068 14.311 4.20369C14.5371 4.00098 14.8202 3.97793 15.0079 4.12392C15.2212 4.29017 15.2023 4.58916 15.0857 4.81339C14.9668 5.0409 14.7706 5.16258 14.5823 5.22166C14.5823 5.22166 14.5427 5.23015 14.5486 5.26608C14.5557 5.3235 14.8126 5.46569 14.8346 5.50357C14.8558 5.53963 14.8445 5.59551 14.8059 5.63837C14.7787 5.66949 14.7362 5.69862 14.6817 5.69763C14.6377 5.69676 14.611 5.68151 14.5547 5.6511C14.4396 5.58873 14.2957 5.48617 14.1997 5.36527C14.167 5.32439 14.1503 5.32356 14.0687 5.32808C13.7009 5.3493 13.1276 5.40474 12.7391 5.45326C12.6449 5.46457 12.631 5.48253 12.6116 5.5152C11.9922 6.53662 11.3308 7.6381 10.6047 8.37556C9.82582 9.16627 9.17841 9.37446 8.49113 9.37984" fill="white"/>
<path d="M15.9995 1.15668C7.92493 1.15668 1.37982 3.38796 1.37982 6.11831C1.37982 8.84886 7.92493 11.0803 15.9995 11.0803C24.074 11.0803 30.6187 8.84886 30.6187 6.11831C30.6187 3.38796 24.074 1.15668 15.9995 1.15668ZM15.9995 11.53C7.63098 11.53 0.847046 9.10712 0.847046 6.11831C0.847046 3.12904 7.63098 0.706604 15.9995 0.706604C24.3673 0.706604 31.1509 3.12904 31.1509 6.11831C31.1509 9.10712 24.3673 11.53 15.9995 11.53Z" fill="white"/>
</g>
<defs>
<clipPath id="clip0_0_24701">
<rect width="32" height="12.2331" fill="white"/>
</clipPath>
</defs>
</svg>
