<svg width="32" height="16" viewBox="0 0 32 16" fill="none" xmlns="http://www.w3.org/2000/svg">
<g clip-path="url(#clip0_0_24556)">
<path d="M5.76002 11.6587V14.6133L4.75736 11.7653C4.73602 11.6907 4.68269 11.6587 4.57602 11.6587H3.64802V15.2533H4.28802V12.3307L5.28002 15.136C5.30136 15.2107 5.36536 15.2427 5.44002 15.2427H6.40002V11.648H5.76002V11.6587ZM9.06669 11.6587V15.2533H9.81336V13.7173H11.1467V13.056H9.81336V12.3093H11.168V11.648H9.06669V11.6587ZM26.1654 11.6587V12.352H26.9867V15.2533H27.7334V12.3413H28.5547V11.648H26.1547L26.1654 11.6587ZM13.76 15.2533H14.56V11.6587H13.76V15.2533ZM22.8267 15.2533H23.6267V11.6587H22.8267V15.2533ZM31.0934 15.2533H31.8827V11.6587H31.0934V15.2533ZM0.106689 15.2533H0.906689V11.6587H0.106689V15.2533ZM20.0854 11.6587H19.4454V14.6133L18.4427 11.7653C18.4214 11.6907 18.368 11.6587 18.272 11.6587H17.3334V15.2533H17.9734V12.3307L18.9654 15.136C18.9867 15.2107 19.0507 15.2427 19.1254 15.2427H20.0854V11.648V11.6587ZM19.2534 5.76L16 1.38667L12.7467 5.76C11.648 5.65333 9.76002 4.93867 9.76002 3.66933C9.76002 2.06933 12.5334 0.576 16.0107 0.576C19.6694 0.576 22.2614 2.06933 22.2614 3.66933C22.2614 4.94933 20.3627 5.664 19.2747 5.74933M16 0.106667C11.4987 0.106667 8.36269 1.86667 8.36269 4.13867C8.36269 5.20533 9.04536 6.4 10.496 7.12533C11.8507 7.79733 13.7494 8.032 14.016 8.064L16 2.272L17.984 8.064C19.1975 7.92806 20.3839 7.61168 21.504 7.12533C22.9547 6.4 23.6374 5.20533 23.6374 4.13867C23.6267 1.856 20.5014 0.106667 16 0.106667Z" fill="black"/>
</g>
<defs>
<clipPath id="clip0_0_24556">
<rect width="32" height="15.3707" fill="white"/>
</clipPath>
</defs>
</svg>
