<svg width="36" height="6" viewBox="0 0 36 6" fill="none" xmlns="http://www.w3.org/2000/svg">
<g clip-path="url(#clip0_0_24493)">
<path d="M6.72316 5.61708H8.25741V2.4198H7.36726C6.99093 2.4198 6.73764 2.59434 6.47711 2.82442C6.19486 3.09416 5.17445 4.06207 5.17445 4.06207V2.42773H4.26982C3.756 2.42773 3.49547 2.62607 3.21322 2.87201C3.01059 3.03069 0 5.61708 0 5.61708H1.82372L3.63297 3.98274V5.61708H5.10208L6.72316 4.00654V5.61708ZM10.0739 5.61708H12.5562V4.79198H10.5226C10.3344 4.79198 10.1318 4.66504 10.1318 4.26042V4.20488C10.1318 3.84787 10.2982 3.69713 10.5153 3.69713H12.5562V2.86409H10.0232C8.98834 2.86409 8.57583 3.35598 8.57583 4.11761V4.37149C8.57583 5.26007 9.02452 5.61708 10.0739 5.61708H10.0739ZM15.6174 5.61708V4.77611H14.4306V2.42773H12.8891V5.62502H15.6174V5.61708ZM18.5991 4.54603C18.5991 4.70471 18.5412 4.79991 18.3675 4.79991H17.5352C17.3905 4.79991 17.2964 4.75231 17.2964 4.6333C17.2964 4.50636 17.3543 4.43496 17.5352 4.43496H18.5991V4.54603ZM20.1333 4.54603V3.94307C20.1333 3.25284 19.7208 2.86409 18.8379 2.86409H16.0878V3.65746H18.2951C18.5195 3.65746 18.5991 3.7368 18.5991 3.9272V3.95894H16.8405C16.1023 3.95894 15.8418 4.30009 15.8418 4.74438V4.83165C15.8386 4.91922 15.8517 5.00659 15.8803 5.08842C15.9089 5.17026 15.9525 5.24486 16.0082 5.30767C16.2253 5.52981 16.6378 5.60122 17.1951 5.60122H18.7221C19.7208 5.61708 20.1333 5.37114 20.1333 4.54603H20.1333ZM22.0077 3.69713H22.9702V2.86409H21.0017C20.6833 2.86409 20.4807 3.04656 20.4807 3.35598V5.61708H22.0222V3.69713H22.0077ZM25.9808 3.84787C25.9808 3.96687 25.9301 4.03828 25.7564 4.03828H24.6637V3.9272C24.6637 3.76853 24.7216 3.67333 24.9025 3.67333H25.742C25.8795 3.67333 25.9808 3.72093 25.9808 3.84787H25.9808ZM27.4354 3.7844V3.67333C27.4354 3.22111 27.2038 2.87203 26.1255 2.87203H24.5406C23.5419 2.87203 23.1294 3.24491 23.1294 4.05415V4.53017C23.1294 5.2204 23.5419 5.61709 24.4321 5.61709H27.2473V4.81578H24.9676C24.7433 4.81578 24.6637 4.74438 24.6637 4.55397V4.53017H26.4295C27.0519 4.52223 27.4354 4.30009 27.4354 3.7844H27.4354ZM31.8283 5.61708V4.07795C31.8283 3.11797 31.4085 2.86409 30.1638 2.86409H27.7249V5.61708H29.2664V3.7606H29.6789C30.1421 3.7606 30.294 4.05414 30.294 4.37149V5.62502H31.8283L31.8283 5.61708Z" fill="black"/>
<path d="M34.7014 0C33.9198 0 32.798 0.253878 31.5822 0.737835C30.5043 1.17019 29.4709 1.72598 28.4993 2.39598C29.4311 2.0166 30.4147 1.81274 31.4085 1.79302C32.7836 1.79302 33.7823 2.37218 32.3276 4.41114C36.6192 1.3408 36.4961 0 34.7014 0Z" fill="black"/>
</g>
<defs>
<clipPath id="clip0_0_24493">
<rect width="36" height="5.625" fill="white"/>
</clipPath>
</defs>
</svg>
