<svg width="23" height="23" viewBox="0 0 23 23" fill="none" xmlns="http://www.w3.org/2000/svg">
<path d="M11.2579 22.4173L14.4075 4.70385C17.4097 4.70385 18.3566 5.03305 18.4933 6.37675C18.4933 6.37675 20.5072 5.62584 21.523 4.10076C17.5593 2.26406 13.5766 2.18123 13.5766 2.18123L11.2527 5.01174L11.2579 5.01139L8.93402 2.18079C8.93402 2.18079 4.95131 2.26371 0.988129 4.10041C2.00298 5.62548 4.01769 6.37639 4.01769 6.37639C4.15521 5.03261 5.10099 4.70341 8.08296 4.70128L11.2579 22.4173Z" fill="black"/>
<path d="M11.2567 1.36367C14.4608 1.33917 18.1283 1.85934 21.8826 3.49566C22.3844 2.59249 22.5134 2.19333 22.5134 2.19333C18.4093 0.569618 14.5659 0.0139386 11.2563 0C7.94678 0.0139386 4.10354 0.569707 0 2.19333C0 2.19333 0.183066 2.685 0.630344 3.49566C4.384 1.85934 8.05207 1.33917 11.2563 1.36367H11.2567Z" fill="black"/>
</svg>
